<svg class="rich-terminal" viewBox="0 0 1190 562.4" xmlns="http://www.w3.org/2000/svg">
    <!-- Generated with Rich https://www.textualize.io -->
    <style>

    @font-face {
        font-family: "Fira Code";
        src: local("FiraCode-Regular"),
                url("https://cdnjs.cloudflare.com/ajax/libs/firacode/6.2.0/woff2/FiraCode-Regular.woff2") format("woff2"),
                url("https://cdnjs.cloudflare.com/ajax/libs/firacode/6.2.0/woff/FiraCode-Regular.woff") format("woff");
        font-style: normal;
        font-weight: 400;
    }
    @font-face {
        font-family: "Fira Code";
        src: local("FiraCode-Bold"),
                url("https://cdnjs.cloudflare.com/ajax/libs/firacode/6.2.0/woff2/FiraCode-Bold.woff2") format("woff2"),
                url("https://cdnjs.cloudflare.com/ajax/libs/firacode/6.2.0/woff/FiraCode-Bold.woff") format("woff");
        font-style: bold;
        font-weight: 700;
    }

    .terminal-424045050-matrix {
        font-family: Fira Code, monospace;
        font-size: 20px;
        line-height: 24.4px;
        font-variant-east-asian: full-width;
    }

    .terminal-424045050-title {
        font-size: 18px;
        font-weight: bold;
        font-family: arial;
    }

    .terminal-424045050-r1 { fill: #c5c8c6 }
.terminal-424045050-r2 { fill: #e0e0e0 }
.terminal-424045050-r3 { fill: #707070 }
.terminal-424045050-r4 { fill: #646464 }
.terminal-424045050-r5 { fill: #ffffff }
.terminal-424045050-r6 { fill: #797979 }
    </style>

    <defs>
    <clipPath id="terminal-424045050-clip-terminal">
      <rect x="0" y="0" width="1170.1999999999998" height="511.4" />
    </clipPath>
    <clipPath id="terminal-424045050-line-0">
    <rect x="0" y="1.5" width="1171.2" height="24.65"/>
            </clipPath>
<clipPath id="terminal-424045050-line-1">
    <rect x="0" y="25.9" width="1171.2" height="24.65"/>
            </clipPath>
<clipPath id="terminal-424045050-line-2">
    <rect x="0" y="50.3" width="1171.2" height="24.65"/>
            </clipPath>
<clipPath id="terminal-424045050-line-3">
    <rect x="0" y="74.7" width="1171.2" height="24.65"/>
            </clipPath>
<clipPath id="terminal-424045050-line-4">
    <rect x="0" y="99.1" width="1171.2" height="24.65"/>
            </clipPath>
<clipPath id="terminal-424045050-line-5">
    <rect x="0" y="123.5" width="1171.2" height="24.65"/>
            </clipPath>
<clipPath id="terminal-424045050-line-6">
    <rect x="0" y="147.9" width="1171.2" height="24.65"/>
            </clipPath>
<clipPath id="terminal-424045050-line-7">
    <rect x="0" y="172.3" width="1171.2" height="24.65"/>
            </clipPath>
<clipPath id="terminal-424045050-line-8">
    <rect x="0" y="196.7" width="1171.2" height="24.65"/>
            </clipPath>
<clipPath id="terminal-424045050-line-9">
    <rect x="0" y="221.1" width="1171.2" height="24.65"/>
            </clipPath>
<clipPath id="terminal-424045050-line-10">
    <rect x="0" y="245.5" width="1171.2" height="24.65"/>
            </clipPath>
<clipPath id="terminal-424045050-line-11">
    <rect x="0" y="269.9" width="1171.2" height="24.65"/>
            </clipPath>
<clipPath id="terminal-424045050-line-12">
    <rect x="0" y="294.3" width="1171.2" height="24.65"/>
            </clipPath>
<clipPath id="terminal-424045050-line-13">
    <rect x="0" y="318.7" width="1171.2" height="24.65"/>
            </clipPath>
<clipPath id="terminal-424045050-line-14">
    <rect x="0" y="343.1" width="1171.2" height="24.65"/>
            </clipPath>
<clipPath id="terminal-424045050-line-15">
    <rect x="0" y="367.5" width="1171.2" height="24.65"/>
            </clipPath>
<clipPath id="terminal-424045050-line-16">
    <rect x="0" y="391.9" width="1171.2" height="24.65"/>
            </clipPath>
<clipPath id="terminal-424045050-line-17">
    <rect x="0" y="416.3" width="1171.2" height="24.65"/>
            </clipPath>
<clipPath id="terminal-424045050-line-18">
    <rect x="0" y="440.7" width="1171.2" height="24.65"/>
            </clipPath>
<clipPath id="terminal-424045050-line-19">
    <rect x="0" y="465.1" width="1171.2" height="24.65"/>
            </clipPath>
    </defs>

    <rect fill="#292929" stroke="rgba(255,255,255,0.35)" stroke-width="1" x="1" y="1" width="1188" height="560.4" rx="8"/><text class="terminal-424045050-title" fill="#c5c8c6" text-anchor="middle" x="594" y="27">TodoApp</text>
            <g transform="translate(26,22)">
            <circle cx="0" cy="0" r="7" fill="#ff5f57"/>
            <circle cx="22" cy="0" r="7" fill="#febc2e"/>
            <circle cx="44" cy="0" r="7" fill="#28c840"/>
            </g>
        
    <g transform="translate(9, 41)" clip-path="url(#terminal-424045050-clip-terminal)">
    <rect fill="#242f38" x="0" y="1.5" width="12.2" height="24.65" shape-rendering="crispEdges"/><rect fill="#242f38" x="12.2" y="1.5" width="12.2" height="24.65" shape-rendering="crispEdges"/><rect fill="#242f38" x="24.4" y="1.5" width="61" height="24.65" shape-rendering="crispEdges"/><rect fill="#242f38" x="85.4" y="1.5" width="12.2" height="24.65" shape-rendering="crispEdges"/><rect fill="#242f38" x="97.6" y="1.5" width="427" height="24.65" shape-rendering="crispEdges"/><rect fill="#242f38" x="524.6" y="1.5" width="85.4" height="24.65" shape-rendering="crispEdges"/><rect fill="#242f38" x="610" y="1.5" width="439.2" height="24.65" shape-rendering="crispEdges"/><rect fill="#242f38" x="1049.2" y="1.5" width="12.2" height="24.65" shape-rendering="crispEdges"/><rect fill="#242f38" x="1061.4" y="1.5" width="0" height="24.65" shape-rendering="crispEdges"/><rect fill="#242f38" x="1061.4" y="1.5" width="97.6" height="24.65" shape-rendering="crispEdges"/><rect fill="#242f38" x="1159" y="1.5" width="12.2" height="24.65" shape-rendering="crispEdges"/><rect fill="#121212" x="0" y="25.9" width="1171.2" height="24.65" shape-rendering="crispEdges"/><rect fill="#121212" x="0" y="50.3" width="24.4" height="24.65" shape-rendering="crispEdges"/><rect fill="#1a1a1a" x="24.4" y="50.3" width="12.2" height="24.65" shape-rendering="crispEdges"/><rect fill="#1a1a1a" x="36.6" y="50.3" width="12.2" height="24.65" shape-rendering="crispEdges"/><rect fill="#1a1a1a" x="48.8" y="50.3" width="85.4" height="24.65" shape-rendering="crispEdges"/><rect fill="#1a1a1a" x="134.2" y="50.3" width="1000.4" height="24.65" shape-rendering="crispEdges"/><rect fill="#1a1a1a" x="1134.6" y="50.3" width="12.2" height="24.65" shape-rendering="crispEdges"/><rect fill="#121212" x="1146.8" y="50.3" width="24.4" height="24.65" shape-rendering="crispEdges"/><rect fill="#121212" x="0" y="74.7" width="24.4" height="24.65" shape-rendering="crispEdges"/><rect fill="#1a1a1a" x="24.4" y="74.7" width="12.2" height="24.65" shape-rendering="crispEdges"/><rect fill="#1a1a1a" x="36.6" y="74.7" width="402.6" height="24.65" shape-rendering="crispEdges"/><rect fill="#1a1a1a" x="439.2" y="74.7" width="695.4" height="24.65" shape-rendering="crispEdges"/><rect fill="#1a1a1a" x="1134.6" y="74.7" width="12.2" height="24.65" shape-rendering="crispEdges"/><rect fill="#121212" x="1146.8" y="74.7" width="24.4" height="24.65" shape-rendering="crispEdges"/><rect fill="#121212" x="0" y="99.1" width="24.4" height="24.65" shape-rendering="crispEdges"/><rect fill="#1a1a1a" x="24.4" y="99.1" width="12.2" height="24.65" shape-rendering="crispEdges"/><rect fill="#1a1a1a" x="36.6" y="99.1" width="280.6" height="24.65" shape-rendering="crispEdges"/><rect fill="#1a1a1a" x="317.2" y="99.1" width="817.4" height="24.65" shape-rendering="crispEdges"/><rect fill="#1a1a1a" x="1134.6" y="99.1" width="12.2" height="24.65" shape-rendering="crispEdges"/><rect fill="#121212" x="1146.8" y="99.1" width="24.4" height="24.65" shape-rendering="crispEdges"/><rect fill="#121212" x="0" y="123.5" width="24.4" height="24.65" shape-rendering="crispEdges"/><rect fill="#1a1a1a" x="24.4" y="123.5" width="12.2" height="24.65" shape-rendering="crispEdges"/><rect fill="#1a1a1a" x="36.6" y="123.5" width="329.4" height="24.65" shape-rendering="crispEdges"/><rect fill="#1a1a1a" x="366" y="123.5" width="768.6" height="24.65" shape-rendering="crispEdges"/><rect fill="#1a1a1a" x="1134.6" y="123.5" width="12.2" height="24.65" shape-rendering="crispEdges"/><rect fill="#121212" x="1146.8" y="123.5" width="24.4" height="24.65" shape-rendering="crispEdges"/><rect fill="#121212" x="0" y="147.9" width="24.4" height="24.65" shape-rendering="crispEdges"/><rect fill="#1a1a1a" x="24.4" y="147.9" width="12.2" height="24.65" shape-rendering="crispEdges"/><rect fill="#1a1a1a" x="36.6" y="147.9" width="219.6" height="24.65" shape-rendering="crispEdges"/><rect fill="#1a1a1a" x="256.2" y="147.9" width="878.4" height="24.65" shape-rendering="crispEdges"/><rect fill="#1a1a1a" x="1134.6" y="147.9" width="12.2" height="24.65" shape-rendering="crispEdges"/><rect fill="#121212" x="1146.8" y="147.9" width="24.4" height="24.65" shape-rendering="crispEdges"/><rect fill="#121212" x="0" y="172.3" width="24.4" height="24.65" shape-rendering="crispEdges"/><rect fill="#1a1a1a" x="24.4" y="172.3" width="12.2" height="24.65" shape-rendering="crispEdges"/><rect fill="#1a1a1a" x="36.6" y="172.3" width="207.4" height="24.65" shape-rendering="crispEdges"/><rect fill="#1a1a1a" x="244" y="172.3" width="890.6" height="24.65" shape-rendering="crispEdges"/><rect fill="#1a1a1a" x="1134.6" y="172.3" width="12.2" height="24.65" shape-rendering="crispEdges"/><rect fill="#121212" x="1146.8" y="172.3" width="24.4" height="24.65" shape-rendering="crispEdges"/><rect fill="#121212" x="0" y="196.7" width="24.4" height="24.65" shape-rendering="crispEdges"/><rect fill="#1a1a1a" x="24.4" y="196.7" width="12.2" height="24.65" shape-rendering="crispEdges"/><rect fill="#1a1a1a" x="36.6" y="196.7" width="402.6" height="24.65" shape-rendering="crispEdges"/><rect fill="#1a1a1a" x="439.2" y="196.7" width="695.4" height="24.65" shape-rendering="crispEdges"/><rect fill="#1a1a1a" x="1134.6" y="196.7" width="12.2" height="24.65" shape-rendering="crispEdges"/><rect fill="#121212" x="1146.8" y="196.7" width="24.4" height="24.65" shape-rendering="crispEdges"/><rect fill="#121212" x="0" y="221.1" width="24.4" height="24.65" shape-rendering="crispEdges"/><rect fill="#272727" x="24.4" y="221.1" width="12.2" height="24.65" shape-rendering="crispEdges"/><rect fill="#272727" x="36.6" y="221.1" width="12.2" height="24.65" shape-rendering="crispEdges"/><rect fill="#272727" x="48.8" y="221.1" width="122" height="24.65" shape-rendering="crispEdges"/><rect fill="#272727" x="170.8" y="221.1" width="963.8" height="24.65" shape-rendering="crispEdges"/><rect fill="#272727" x="1134.6" y="221.1" width="12.2" height="24.65" shape-rendering="crispEdges"/><rect fill="#121212" x="1146.8" y="221.1" width="24.4" height="24.65" shape-rendering="crispEdges"/><rect fill="#121212" x="0" y="245.5" width="24.4" height="24.65" shape-rendering="crispEdges"/><rect fill="#272727" x="24.4" y="245.5" width="12.2" height="24.65" shape-rendering="crispEdges"/><rect fill="#272727" x="36.6" y="245.5" width="24.4" height="24.65" shape-rendering="crispEdges"/><rect fill="#272727" x="61" y="245.5" width="12.2" height="24.65" shape-rendering="crispEdges"/><rect fill="#272727" x="73.2" y="245.5" width="1037" height="24.65" shape-rendering="crispEdges"/><rect fill="#272727" x="1110.2" y="245.5" width="24.4" height="24.65" shape-rendering="crispEdges"/><rect fill="#272727" x="1134.6" y="245.5" width="12.2" height="24.65" shape-rendering="crispEdges"/><rect fill="#121212" x="1146.8" y="245.5" width="24.4" height="24.65" shape-rendering="crispEdges"/><rect fill="#121212" x="0" y="269.9" width="24.4" height="24.65" shape-rendering="crispEdges"/><rect fill="#272727" x="24.4" y="269.9" width="12.2" height="24.65" shape-rendering="crispEdges"/><rect fill="#272727" x="36.6" y="269.9" width="1098" height="24.65" shape-rendering="crispEdges"/><rect fill="#272727" x="1134.6" y="269.9" width="12.2" height="24.65" shape-rendering="crispEdges"/><rect fill="#121212" x="1146.8" y="269.9" width="24.4" height="24.65" shape-rendering="crispEdges"/><rect fill="#121212" x="0" y="294.3" width="24.4" height="24.65" shape-rendering="crispEdges"/><rect fill="#1a1a1a" x="24.4" y="294.3" width="12.2" height="24.65" shape-rendering="crispEdges"/><rect fill="#1a1a1a" x="36.6" y="294.3" width="1098" height="24.65" shape-rendering="crispEdges"/><rect fill="#1a1a1a" x="1134.6" y="294.3" width="12.2" height="24.65" shape-rendering="crispEdges"/><rect fill="#121212" x="1146.8" y="294.3" width="24.4" height="24.65" shape-rendering="crispEdges"/><rect fill="#121212" x="0" y="318.7" width="24.4" height="24.65" shape-rendering="crispEdges"/><rect fill="#1a1a1a" x="24.4" y="318.7" width="12.2" height="24.65" shape-rendering="crispEdges"/><rect fill="#1a1a1a" x="36.6" y="318.7" width="463.6" height="24.65" shape-rendering="crispEdges"/><rect fill="#1a1a1a" x="500.2" y="318.7" width="622.2" height="24.65" shape-rendering="crispEdges"/><rect fill="#1a1a1a" x="1122.4" y="318.7" width="12.2" height="24.65" shape-rendering="crispEdges"/><rect fill="#1a1a1a" x="1134.6" y="318.7" width="12.2" height="24.65" shape-rendering="crispEdges"/><rect fill="#121212" x="1146.8" y="318.7" width="24.4" height="24.65" shape-rendering="crispEdges"/><rect fill="#121212" x="0" y="343.1" width="1171.2" height="24.65" shape-rendering="crispEdges"/><rect fill="#121212" x="0" y="367.5" width="24.4" height="24.65" shape-rendering="crispEdges"/><rect fill="#151515" x="24.4" y="367.5" width="12.2" height="24.65" shape-rendering="crispEdges"/><rect fill="#151515" x="36.6" y="367.5" width="12.2" height="24.65" shape-rendering="crispEdges"/><rect fill="#151515" x="48.8" y="367.5" width="61" height="24.65" shape-rendering="crispEdges"/><rect fill="#151515" x="109.8" y="367.5" width="1024.8" height="24.65" shape-rendering="crispEdges"/><rect fill="#151515" x="1134.6" y="367.5" width="12.2" height="24.65" shape-rendering="crispEdges"/><rect fill="#121212" x="1146.8" y="367.5" width="24.4" height="24.65" shape-rendering="crispEdges"/><rect fill="#121212" x="0" y="391.9" width="24.4" height="24.65" shape-rendering="crispEdges"/><rect fill="#151515" x="24.4" y="391.9" width="12.2" height="24.65" shape-rendering="crispEdges"/><rect fill="#151515" x="36.6" y="391.9" width="1073.6" height="24.65" shape-rendering="crispEdges"/><rect fill="#0a0a0a" x="1110.2" y="391.9" width="24.4" height="24.65" shape-rendering="crispEdges"/><rect fill="#151515" x="1134.6" y="391.9" width="12.2" height="24.65" shape-rendering="crispEdges"/><rect fill="#121212" x="1146.8" y="391.9" width="24.4" height="24.65" shape-rendering="crispEdges"/><rect fill="#121212" x="0" y="416.3" width="24.4" height="24.65" shape-rendering="crispEdges"/><rect fill="#151515" x="24.4" y="416.3" width="12.2" height="24.65" shape-rendering="crispEdges"/><rect fill="#151515" x="36.6" y="416.3" width="1073.6" height="24.65" shape-rendering="crispEdges"/><rect fill="#0a0a0a" x="1110.2" y="416.3" width="24.4" height="24.65" shape-rendering="crispEdges"/><rect fill="#151515" x="1134.6" y="416.3" width="12.2" height="24.65" shape-rendering="crispEdges"/><rect fill="#121212" x="1146.8" y="416.3" width="24.4" height="24.65" shape-rendering="crispEdges"/><rect fill="#121212" x="0" y="440.7" width="24.4" height="24.65" shape-rendering="crispEdges"/><rect fill="#151515" x="24.4" y="440.7" width="12.2" height="24.65" shape-rendering="crispEdges"/><rect fill="#0a0a0a" x="36.6" y="440.7" width="12.2" height="24.65" shape-rendering="crispEdges"/><rect fill="#0a0a0a" x="48.8" y="440.7" width="12.2" height="24.65" shape-rendering="crispEdges"/><rect fill="#0a0a0a" x="61" y="440.7" width="12.2" height="24.65" shape-rendering="crispEdges"/><rect fill="#0a0a0a" x="73.2" y="440.7" width="12.2" height="24.65" shape-rendering="crispEdges"/><rect fill="#0a0a0a" x="85.4" y="440.7" width="12.2" height="24.65" shape-rendering="crispEdges"/><rect fill="#0a0a0a" x="97.6" y="440.7" width="12.2" height="24.65" shape-rendering="crispEdges"/><rect fill="#0a0a0a" x="109.8" y="440.7" width="12.2" height="24.65" shape-rendering="crispEdges"/><rect fill="#0a0a0a" x="122" y="440.7" width="12.2" height="24.65" shape-rendering="crispEdges"/><rect fill="#0a0a0a" x="134.2" y="440.7" width="12.2" height="24.65" shape-rendering="crispEdges"/><rect fill="#0a0a0a" x="146.4" y="440.7" width="12.2" height="24.65" shape-rendering="crispEdges"/><rect fill="#0a0a0a" x="158.6" y="440.7" width="12.2" height="24.65" shape-rendering="crispEdges"/><rect fill="#0a0a0a" x="170.8" y="440.7" width="12.2" height="24.65" shape-rendering="crispEdges"/><rect fill="#0a0a0a" x="183" y="440.7" width="12.2" height="24.65" shape-rendering="crispEdges"/><rect fill="#0a0a0a" x="195.2" y="440.7" width="12.2" height="24.65" shape-rendering="crispEdges"/><rect fill="#0a0a0a" x="207.4" y="440.7" width="12.2" height="24.65" shape-rendering="crispEdges"/><rect fill="#0a0a0a" x="219.6" y="440.7" width="12.2" height="24.65" shape-rendering="crispEdges"/><rect fill="#0a0a0a" x="231.8" y="440.7" width="12.2" height="24.65" shape-rendering="crispEdges"/><rect fill="#0a0a0a" x="244" y="440.7" width="12.2" height="24.65" shape-rendering="crispEdges"/><rect fill="#0a0a0a" x="256.2" y="440.7" width="12.2" height="24.65" shape-rendering="crispEdges"/><rect fill="#0a0a0a" x="268.4" y="440.7" width="12.2" height="24.65" shape-rendering="crispEdges"/><rect fill="#0a0a0a" x="280.6" y="440.7" width="12.2" height="24.65" shape-rendering="crispEdges"/><rect fill="#0a0a0a" x="292.8" y="440.7" width="12.2" height="24.65" shape-rendering="crispEdges"/><rect fill="#0a0a0a" x="305" y="440.7" width="12.2" height="24.65" shape-rendering="crispEdges"/><rect fill="#0a0a0a" x="317.2" y="440.7" width="12.2" height="24.65" shape-rendering="crispEdges"/><rect fill="#0a0a0a" x="329.4" y="440.7" width="12.2" height="24.65" shape-rendering="crispEdges"/><rect fill="#0a0a0a" x="341.6" y="440.7" width="12.2" height="24.65" shape-rendering="crispEdges"/><rect fill="#0a0a0a" x="353.8" y="440.7" width="12.2" height="24.65" shape-rendering="crispEdges"/><rect fill="#0a0a0a" x="366" y="440.7" width="12.2" height="24.65" shape-rendering="crispEdges"/><rect fill="#0a0a0a" x="378.2" y="440.7" width="12.2" height="24.65" shape-rendering="crispEdges"/><rect fill="#0a0a0a" x="390.4" y="440.7" width="12.2" height="24.65" shape-rendering="crispEdges"/><rect fill="#0a0a0a" x="402.6" y="440.7" width="12.2" height="24.65" shape-rendering="crispEdges"/><rect fill="#0a0a0a" x="414.8" y="440.7" width="12.2" height="24.65" shape-rendering="crispEdges"/><rect fill="#0a0a0a" x="427" y="440.7" width="12.2" height="24.65" shape-rendering="crispEdges"/><rect fill="#0a0a0a" x="439.2" y="440.7" width="12.2" height="24.65" shape-rendering="crispEdges"/><rect fill="#0a0a0a" x="451.4" y="440.7" width="12.2" height="24.65" shape-rendering="crispEdges"/><rect fill="#0a0a0a" x="463.6" y="440.7" width="12.2" height="24.65" shape-rendering="crispEdges"/><rect fill="#0a0a0a" x="475.8" y="440.7" width="12.2" height="24.65" shape-rendering="crispEdges"/><rect fill="#0a0a0a" x="488" y="440.7" width="12.2" height="24.65" shape-rendering="crispEdges"/><rect fill="#0a0a0a" x="500.2" y="440.7" width="12.2" height="24.65" shape-rendering="crispEdges"/><rect fill="#0a0a0a" x="512.4" y="440.7" width="12.2" height="24.65" shape-rendering="crispEdges"/><rect fill="#0a0a0a" x="524.6" y="440.7" width="12.2" height="24.65" shape-rendering="crispEdges"/><rect fill="#0a0a0a" x="536.8" y="440.7" width="12.2" height="24.65" shape-rendering="crispEdges"/><rect fill="#0a0a0a" x="549" y="440.7" width="12.2" height="24.65" shape-rendering="crispEdges"/><rect fill="#0a0a0a" x="561.2" y="440.7" width="12.2" height="24.65" shape-rendering="crispEdges"/><rect fill="#0a0a0a" x="573.4" y="440.7" width="12.2" height="24.65" shape-rendering="crispEdges"/><rect fill="#0a0a0a" x="585.6" y="440.7" width="12.2" height="24.65" shape-rendering="crispEdges"/><rect fill="#0a0a0a" x="597.8" y="440.7" width="12.2" height="24.65" shape-rendering="crispEdges"/><rect fill="#0a0a0a" x="610" y="440.7" width="12.2" height="24.65" shape-rendering="crispEdges"/><rect fill="#0a0a0a" x="622.2" y="440.7" width="12.2" height="24.65" shape-rendering="crispEdges"/><rect fill="#0a0a0a" x="634.4" y="440.7" width="12.2" height="24.65" shape-rendering="crispEdges"/><rect fill="#0a0a0a" x="646.6" y="440.7" width="12.2" height="24.65" shape-rendering="crispEdges"/><rect fill="#0a0a0a" x="658.8" y="440.7" width="12.2" height="24.65" shape-rendering="crispEdges"/><rect fill="#0a0a0a" x="671" y="440.7" width="12.2" height="24.65" shape-rendering="crispEdges"/><rect fill="#0a0a0a" x="683.2" y="440.7" width="12.2" height="24.65" shape-rendering="crispEdges"/><rect fill="#0a0a0a" x="695.4" y="440.7" width="12.2" height="24.65" shape-rendering="crispEdges"/><rect fill="#0a0a0a" x="707.6" y="440.7" width="12.2" height="24.65" shape-rendering="crispEdges"/><rect fill="#0a0a0a" x="719.8" y="440.7" width="12.2" height="24.65" shape-rendering="crispEdges"/><rect fill="#0a0a0a" x="732" y="440.7" width="12.2" height="24.65" shape-rendering="crispEdges"/><rect fill="#0a0a0a" x="744.2" y="440.7" width="12.2" height="24.65" shape-rendering="crispEdges"/><rect fill="#0a0a0a" x="756.4" y="440.7" width="12.2" height="24.65" shape-rendering="crispEdges"/><rect fill="#0a0a0a" x="768.6" y="440.7" width="12.2" height="24.65" shape-rendering="crispEdges"/><rect fill="#0a0a0a" x="780.8" y="440.7" width="12.2" height="24.65" shape-rendering="crispEdges"/><rect fill="#0a0a0a" x="793" y="440.7" width="12.2" height="24.65" shape-rendering="crispEdges"/><rect fill="#0a0a0a" x="805.2" y="440.7" width="12.2" height="24.65" shape-rendering="crispEdges"/><rect fill="#0a0a0a" x="817.4" y="440.7" width="12.2" height="24.65" shape-rendering="crispEdges"/><rect fill="#0a0a0a" x="829.6" y="440.7" width="12.2" height="24.65" shape-rendering="crispEdges"/><rect fill="#0a0a0a" x="841.8" y="440.7" width="12.2" height="24.65" shape-rendering="crispEdges"/><rect fill="#0a0a0a" x="854" y="440.7" width="12.2" height="24.65" shape-rendering="crispEdges"/><rect fill="#0a0a0a" x="866.2" y="440.7" width="12.2" height="24.65" shape-rendering="crispEdges"/><rect fill="#0a0a0a" x="878.4" y="440.7" width="12.2" height="24.65" shape-rendering="crispEdges"/><rect fill="#0a0a0a" x="890.6" y="440.7" width="12.2" height="24.65" shape-rendering="crispEdges"/><rect fill="#0a0a0a" x="902.8" y="440.7" width="12.2" height="24.65" shape-rendering="crispEdges"/><rect fill="#0a0a0a" x="915" y="440.7" width="12.2" height="24.65" shape-rendering="crispEdges"/><rect fill="#0a0a0a" x="927.2" y="440.7" width="12.2" height="24.65" shape-rendering="crispEdges"/><rect fill="#0a0a0a" x="939.4" y="440.7" width="12.2" height="24.65" shape-rendering="crispEdges"/><rect fill="#0a0a0a" x="951.6" y="440.7" width="12.2" height="24.65" shape-rendering="crispEdges"/><rect fill="#0a0a0a" x="963.8" y="440.7" width="12.2" height="24.65" shape-rendering="crispEdges"/><rect fill="#0a0a0a" x="976" y="440.7" width="12.2" height="24.65" shape-rendering="crispEdges"/><rect fill="#0a0a0a" x="988.2" y="440.7" width="12.2" height="24.65" shape-rendering="crispEdges"/><rect fill="#0a0a0a" x="1000.4" y="440.7" width="12.2" height="24.65" shape-rendering="crispEdges"/><rect fill="#0a0a0a" x="1012.6" y="440.7" width="12.2" height="24.65" shape-rendering="crispEdges"/><rect fill="#0a0a0a" x="1024.8" y="440.7" width="12.2" height="24.65" shape-rendering="crispEdges"/><rect fill="#0a0a0a" x="1037" y="440.7" width="12.2" height="24.65" shape-rendering="crispEdges"/><rect fill="#0a0a0a" x="1049.2" y="440.7" width="12.2" height="24.65" shape-rendering="crispEdges"/><rect fill="#0a0a0a" x="1061.4" y="440.7" width="12.2" height="24.65" shape-rendering="crispEdges"/><rect fill="#0a0a0a" x="1073.6" y="440.7" width="12.2" height="24.65" shape-rendering="crispEdges"/><rect fill="#0a0a0a" x="1085.8" y="440.7" width="12.2" height="24.65" shape-rendering="crispEdges"/><rect fill="#0a0a0a" x="1098" y="440.7" width="12.2" height="24.65" shape-rendering="crispEdges"/><rect fill="#0a0a0a" x="1110.2" y="440.7" width="24.4" height="24.65" shape-rendering="crispEdges"/><rect fill="#151515" x="1134.6" y="440.7" width="12.2" height="24.65" shape-rendering="crispEdges"/><rect fill="#121212" x="1146.8" y="440.7" width="24.4" height="24.65" shape-rendering="crispEdges"/><rect fill="#121212" x="0" y="465.1" width="24.4" height="24.65" shape-rendering="crispEdges"/><rect fill="#151515" x="24.4" y="465.1" width="12.2" height="24.65" shape-rendering="crispEdges"/><rect fill="#151515" x="36.6" y="465.1" width="1098" height="24.65" shape-rendering="crispEdges"/><rect fill="#151515" x="1134.6" y="465.1" width="12.2" height="24.65" shape-rendering="crispEdges"/><rect fill="#121212" x="1146.8" y="465.1" width="24.4" height="24.65" shape-rendering="crispEdges"/><rect fill="#121212" x="0" y="489.5" width="1171.2" height="24.65" shape-rendering="crispEdges"/>
    <g class="terminal-424045050-matrix">
    <text class="terminal-424045050-r2" x="12.2" y="20" textLength="12.2" clip-path="url(#terminal-424045050-line-0)">⭘</text><text class="terminal-424045050-r2" x="524.6" y="20" textLength="85.4" clip-path="url(#terminal-424045050-line-0)">TodoApp</text><text class="terminal-424045050-r1" x="1171.2" y="20" textLength="12.2" clip-path="url(#terminal-424045050-line-0)">
</text><text class="terminal-424045050-r1" x="1171.2" y="44.4" textLength="12.2" clip-path="url(#terminal-424045050-line-1)">
</text><text class="terminal-424045050-r3" x="24.4" y="68.8" textLength="12.2" clip-path="url(#terminal-424045050-line-2)">╭</text><text class="terminal-424045050-r3" x="36.6" y="68.8" textLength="12.2" clip-path="url(#terminal-424045050-line-2)">─</text><text class="terminal-424045050-r3" x="48.8" y="68.8" textLength="85.4" clip-path="url(#terminal-424045050-line-2)">&#160;To&#160;Do&#160;</text><text class="terminal-424045050-r3" x="134.2" y="68.8" textLength="1000.4" clip-path="url(#terminal-424045050-line-2)">──────────────────────────────────────────────────────────────────────────────────</text><text class="terminal-424045050-r3" x="1134.6" y="68.8" textLength="12.2" clip-path="url(#terminal-424045050-line-2)">╮</text><text class="terminal-424045050-r1" x="1171.2" y="68.8" textLength="12.2" clip-path="url(#terminal-424045050-line-2)">
</text><text class="terminal-424045050-r3" x="24.4" y="93.2" textLength="12.2" clip-path="url(#terminal-424045050-line-3)">│</text><text class="terminal-424045050-r4" x="36.6" y="93.2" textLength="402.6" clip-path="url(#terminal-424045050-line-3)">[x]&#160;Add&#160;new&#160;input&#160;function&#160;to&#160;TUI</text><text class="terminal-424045050-r3" x="1134.6" y="93.2" textLength="12.2" clip-path="url(#terminal-424045050-line-3)">│</text><text class="terminal-424045050-r1" x="1171.2" y="93.2" textLength="12.2" clip-path="url(#terminal-424045050-line-3)">
</text><text class="terminal-424045050-r3" x="24.4" y="117.6" textLength="12.2" clip-path="url(#terminal-424045050-line-4)">│</text><text class="terminal-424045050-r4" x="36.6" y="117.6" textLength="280.6" clip-path="url(#terminal-424045050-line-4)">[x]&#160;add&#160;remove&#160;function</text><text class="terminal-424045050-r3" x="1134.6" y="117.6" textLength="12.2" clip-path="url(#terminal-424045050-line-4)">│</text><text class="terminal-424045050-r1" x="1171.2" y="117.6" textLength="12.2" clip-path="url(#terminal-424045050-line-4)">
</text><text class="terminal-424045050-r3" x="24.4" y="142" textLength="12.2" clip-path="url(#terminal-424045050-line-5)">│</text><text class="terminal-424045050-r4" x="36.6" y="142" textLength="329.4" clip-path="url(#terminal-424045050-line-5)">[x]&#160;add&#160;remove&#160;all&#160;function</text><text class="terminal-424045050-r3" x="1134.6" y="142" textLength="12.2" clip-path="url(#terminal-424045050-line-5)">│</text><text class="terminal-424045050-r1" x="1171.2" y="142" textLength="12.2" clip-path="url(#terminal-424045050-line-5)">
</text><text class="terminal-424045050-r3" x="24.4" y="166.4" textLength="12.2" clip-path="url(#terminal-424045050-line-6)">│</text><text class="terminal-424045050-r4" x="36.6" y="166.4" textLength="219.6" clip-path="url(#terminal-424045050-line-6)">[x]&#160;adjust&#160;colours</text><text class="terminal-424045050-r3" x="1134.6" y="166.4" textLength="12.2" clip-path="url(#terminal-424045050-line-6)">│</text><text class="terminal-424045050-r1" x="1171.2" y="166.4" textLength="12.2" clip-path="url(#terminal-424045050-line-6)">
</text><text class="terminal-424045050-r3" x="24.4" y="190.8" textLength="12.2" clip-path="url(#terminal-424045050-line-7)">│</text><text class="terminal-424045050-r4" x="36.6" y="190.8" textLength="207.4" clip-path="url(#terminal-424045050-line-7)">[&#160;]&#160;update&#160;readme</text><text class="terminal-424045050-r3" x="1134.6" y="190.8" textLength="12.2" clip-path="url(#terminal-424045050-line-7)">│</text><text class="terminal-424045050-r1" x="1171.2" y="190.8" textLength="12.2" clip-path="url(#terminal-424045050-line-7)">
</text><text class="terminal-424045050-r3" x="24.4" y="215.2" textLength="12.2" clip-path="url(#terminal-424045050-line-8)">│</text><text class="terminal-424045050-r4" x="36.6" y="215.2" textLength="402.6" clip-path="url(#terminal-424045050-line-8)">[x]&#160;add&#160;capatalising&#160;of&#160;new&#160;tasks</text><text class="terminal-424045050-r3" x="1134.6" y="215.2" textLength="12.2" clip-path="url(#terminal-424045050-line-8)">│</text><text class="terminal-424045050-r1" x="1171.2" y="215.2" textLength="12.2" clip-path="url(#terminal-424045050-line-8)">
</text><text class="terminal-424045050-r5" x="24.4" y="239.6" textLength="12.2" clip-path="url(#terminal-424045050-line-9)">╭</text><text class="terminal-424045050-r5" x="36.6" y="239.6" textLength="12.2" clip-path="url(#terminal-424045050-line-9)">─</text><text class="terminal-424045050-r5" x="48.8" y="239.6" textLength="122" clip-path="url(#terminal-424045050-line-9)">&#160;New&#160;Task&#160;</text><text class="terminal-424045050-r5" x="170.8" y="239.6" textLength="963.8" clip-path="url(#terminal-424045050-line-9)">───────────────────────────────────────────────────────────────────────────────</text><text class="terminal-424045050-r5" x="1134.6" y="239.6" textLength="12.2" clip-path="url(#terminal-424045050-line-9)">╮</text><text class="terminal-424045050-r1" x="1171.2" y="239.6" textLength="12.2" clip-path="url(#terminal-424045050-line-9)">
</text><text class="terminal-424045050-r5" x="24.4" y="264" textLength="12.2" clip-path="url(#terminal-424045050-line-10)">│</text><text class="terminal-424045050-r6" x="61" y="264" textLength="12.2" clip-path="url(#terminal-424045050-line-10)">&gt;</text><text class="terminal-424045050-r5" x="1134.6" y="264" textLength="12.2" clip-path="url(#terminal-424045050-line-10)">│</text><text class="terminal-424045050-r1" x="1171.2" y="264" textLength="12.2" clip-path="url(#terminal-424045050-line-10)">
</text><text class="terminal-424045050-r5" x="24.4" y="288.4" textLength="12.2" clip-path="url(#terminal-424045050-line-11)">╰</text><text class="terminal-424045050-r5" x="36.6" y="288.4" textLength="1098" clip-path="url(#terminal-424045050-line-11)">──────────────────────────────────────────────────────────────────────────────────────────</text><text class="terminal-424045050-r5" x="1134.6" y="288.4" textLength="12.2" clip-path="url(#terminal-424045050-line-11)">╯</text><text class="terminal-424045050-r1" x="1171.2" y="288.4" textLength="12.2" clip-path="url(#terminal-424045050-line-11)">
</text><text class="terminal-424045050-r3" x="24.4" y="312.8" textLength="12.2" clip-path="url(#terminal-424045050-line-12)">│</text><text class="terminal-424045050-r3" x="1134.6" y="312.8" textLength="12.2" clip-path="url(#terminal-424045050-line-12)">│</text><text class="terminal-424045050-r1" x="1171.2" y="312.8" textLength="12.2" clip-path="url(#terminal-424045050-line-12)">
</text><text class="terminal-424045050-r3" x="24.4" y="337.2" textLength="12.2" clip-path="url(#terminal-424045050-line-13)">╰</text><text class="terminal-424045050-r3" x="36.6" y="337.2" textLength="463.6" clip-path="url(#terminal-424045050-line-13)">──────────────────────────────────────</text><text class="terminal-424045050-r3" x="500.2" y="337.2" textLength="622.2" clip-path="url(#terminal-424045050-line-13)">&#160;n-New&#160;Task&#160;r-Remove&#160;Task&#160;^r-Remove&#160;Complete&#160;Tasks&#160;</text><text class="terminal-424045050-r3" x="1122.4" y="337.2" textLength="12.2" clip-path="url(#terminal-424045050-line-13)">─</text><text class="terminal-424045050-r3" x="1134.6" y="337.2" textLength="12.2" clip-path="url(#terminal-424045050-line-13)">╯</text><text class="terminal-424045050-r1" x="1171.2" y="337.2" textLength="12.2" clip-path="url(#terminal-424045050-line-13)">
</text><text class="terminal-424045050-r1" x="1171.2" y="361.6" textLength="12.2" clip-path="url(#terminal-424045050-line-14)">
</text><text class="terminal-424045050-r3" x="24.4" y="386" textLength="12.2" clip-path="url(#terminal-424045050-line-15)">╭</text><text class="terminal-424045050-r3" x="36.6" y="386" textLength="12.2" clip-path="url(#terminal-424045050-line-15)">─</text><text class="terminal-424045050-r3" x="48.8" y="386" textLength="61" clip-path="url(#terminal-424045050-line-15)">&#160;Log&#160;</text><text class="terminal-424045050-r3" x="109.8" y="386" textLength="1024.8" clip-path="url(#terminal-424045050-line-15)">────────────────────────────────────────────────────────────────────────────────────</text><text class="terminal-424045050-r3" x="1134.6" y="386" textLength="12.2" clip-path="url(#terminal-424045050-line-15)">╮</text><text class="terminal-424045050-r1" x="1171.2" y="386" textLength="12.2" clip-path="url(#terminal-424045050-line-15)">
</text><text class="terminal-424045050-r3" x="24.4" y="410.4" textLength="12.2" clip-path="url(#terminal-424045050-line-16)">│</text><text class="terminal-424045050-r3" x="1134.6" y="410.4" textLength="12.2" clip-path="url(#terminal-424045050-line-16)">│</text><text class="terminal-424045050-r1" x="1171.2" y="410.4" textLength="12.2" clip-path="url(#terminal-424045050-line-16)">
</text><text class="terminal-424045050-r3" x="24.4" y="434.8" textLength="12.2" clip-path="url(#terminal-424045050-line-17)">│</text><text class="terminal-424045050-r3" x="1134.6" y="434.8" textLength="12.2" clip-path="url(#terminal-424045050-line-17)">│</text><text class="terminal-424045050-r1" x="1171.2" y="434.8" textLength="12.2" clip-path="url(#terminal-424045050-line-17)">
</text><text class="terminal-424045050-r3" x="24.4" y="459.2" textLength="12.2" clip-path="url(#terminal-424045050-line-18)">│</text><text class="terminal-424045050-r3" x="1134.6" y="459.2" textLength="12.2" clip-path="url(#terminal-424045050-line-18)">│</text><text class="terminal-424045050-r1" x="1171.2" y="459.2" textLength="12.2" clip-path="url(#terminal-424045050-line-18)">
</text><text class="terminal-424045050-r3" x="24.4" y="483.6" textLength="12.2" clip-path="url(#terminal-424045050-line-19)">╰</text><text class="terminal-424045050-r3" x="36.6" y="483.6" textLength="1098" clip-path="url(#terminal-424045050-line-19)">──────────────────────────────────────────────────────────────────────────────────────────</text><text class="terminal-424045050-r3" x="1134.6" y="483.6" textLength="12.2" clip-path="url(#terminal-424045050-line-19)">╯</text><text class="terminal-424045050-r1" x="1171.2" y="483.6" textLength="12.2" clip-path="url(#terminal-424045050-line-19)">
</text>
    </g>
    </g>
</svg>
